<svg width="20" height="20" viewBox="0 0 20 20" fill="none" xmlns="http://www.w3.org/2000/svg">
<path fill-rule="evenodd" clip-rule="evenodd" d="M3.21425 1.07143L18.9285 16.7857C19.5203 17.3774 19.5203 18.3368 18.9285 18.9286C18.3368 19.5203 17.3774 19.5203 16.7857 18.9286L1.07139 3.21429C0.47966 2.62255 0.47966 1.66316 1.07139 1.07143C1.66313 0.479695 2.62252 0.479695 3.21425 1.07143Z" fill="#4E324B"/>
<path fill-rule="evenodd" clip-rule="evenodd" d="M16.7857 1.07143L1.07146 16.7857C0.479728 17.3774 0.479729 18.3368 1.07146 18.9286C1.6632 19.5203 2.62258 19.5203 3.21432 18.9286L18.9286 3.21429C19.5203 2.62255 19.5203 1.66316 18.9286 1.07143C18.3369 0.479695 17.3775 0.479695 16.7857 1.07143Z" fill="#4E324B"/>
</svg>
